<?xml version="1.0" encoding="UTF-8" standalone="no"?>
<!DOCTYPE svg PUBLIC "-//W3C//DTD SVG 1.1//EN" "http://www.w3.org/Graphics/SVG/1.1/DTD/svg11.dtd">
<svg width="100%" height="100%" viewBox="0 0 720 720" version="1.1" xmlns="http://www.w3.org/2000/svg" xmlns:xlink="http://www.w3.org/1999/xlink" xml:space="preserve" xmlns:serif="http://www.serif.com/" style="fill-rule:evenodd;clip-rule:evenodd;stroke-linejoin:round;stroke-miterlimit:2;">
    <g id="Layer-1" serif:id="Layer 1">
        <path id="path1" d="M114.666,631.922C115.685,631.94 116.756,631.969 117.866,632.007C130.672,632.442 148.289,633.831 154.13,632.485C232.981,629.226 302.739,573.883 336.738,504.337L341.06,495.496L332.078,499.515C257.863,532.728 170.002,558.834 91.342,524.386L91.293,524.364C26.479,498.289 -14.203,418.923 12.908,352.142L12.969,351.992L13.016,351.837C26.389,307.828 70.505,277.209 116.22,282.118L116.622,282.161L117.023,282.113C120.2,281.733 122.399,280.406 123.915,278.486C125.84,276.048 126.631,272.35 126.324,267.735C125.766,259.349 121.698,247.306 119.579,236.122C118.32,229.479 117.691,223.174 119.464,218.394L119.676,217.822L119.686,217.213C120.672,158.122 176.909,102.653 236.985,115.39L237.051,115.404C301.171,126.476 342.618,195.63 334.1,258.392L334.084,258.512L334.076,258.633C332.057,288.696 330.802,318.959 327.573,348.908C316.396,308.856 308.238,267.923 294.856,228.653L294.812,228.524L294.758,228.398C288.22,213.142 276.441,197.407 261.904,187.077C246.941,176.445 229.101,171.523 210.965,178.111L210.635,178.231L210.334,178.413C192.157,189.433 185.227,206.934 184.779,225.81C184.35,243.907 189.964,263.276 197.005,278.957C201.553,296.025 212.394,310.15 222.597,324.35C232.137,337.629 241.133,350.963 242.746,367.362C241.093,376.657 237.03,383.014 231.509,386.803C225.906,390.65 218.892,391.837 211.714,391.026C196.764,389.335 181.037,379.044 174.709,364.333L174.447,363.726L173.985,363.252C160.629,349.563 141.081,337.882 121.043,333.505C100.485,329.014 79.455,332.164 63.721,348.131L63.633,348.22L63.551,348.316C44.376,370.725 41.093,400.253 49.036,427.108C56.925,453.78 75.903,477.747 101.065,489.323C168.697,523.191 247.338,499.365 311.654,469.189C348.561,457.563 374.482,428.928 373.12,388.757C382.48,328.261 373.771,267.176 371.11,206.606C370.788,140.234 400.203,63.489 467.323,40.434L467.334,40.43C529.467,18.625 608.285,52.081 626.164,118.187L626.192,118.291L626.227,118.393C645.591,175.953 612.915,245.16 554.391,263.1L554.199,263.159L554.015,263.239C513.515,280.831 458.513,261.05 447.499,215.803L447.486,215.752C445.559,208.749 446.031,200.081 447.39,191.433C448.584,183.831 450.487,176.243 452.269,169.735C455.203,180.181 458.951,190.766 464.257,200.106C472.093,213.895 483.288,224.992 500.021,229.388C526.568,237.512 557.437,220.573 574.054,198.369L574.149,198.242L574.233,198.107C595.266,164.064 586.791,114.295 550.327,94.485C509.907,67.473 450.768,85.13 431.273,129.931C414.303,163.374 411.743,199.191 412.466,235.578C413.175,271.25 417.049,307.466 412.938,342.428L412.882,342.903L412.953,343.376C413.706,348.364 412.182,356.528 410.623,364.67C408.916,373.582 407.118,382.466 407.346,387.783C407.532,392.119 409.302,394.695 411.538,395.582C413.081,396.195 415.253,396.244 418.062,394.761C420.785,393.324 424.665,390.12 429.938,384.507C490.661,343.706 560.351,312.095 633.786,306.248L633.795,306.247C679.356,302.382 718.51,344.925 715.421,390.11L715.411,390.261L715.413,390.411C716.056,430.073 688.398,467.316 650.493,477.99L645.637,479.357L648.546,483.479C674.22,519.858 688.53,569.072 667.858,611.168L667.825,611.235C643.897,665.589 580.272,693.724 523.418,688.177L523.378,688.173C465.894,683.863 419.355,632.453 417.203,575.12L417.201,575.079C415.295,543.834 420.986,511.533 433.594,483.107C438.627,481.321 443.487,477.878 448.039,473.484C455.086,466.682 461.451,457.592 466.8,449.637C467.792,448.162 468.747,446.728 469.665,445.36C467.758,452.788 466.092,460.144 465.405,467.27C464.213,479.643 465.918,491.343 473.789,501.7C468.177,532.819 475.578,559.088 484.956,588.761L484.997,588.891L485.048,589.017C490.377,602.266 501.274,610.428 513.577,615.655C525.281,620.627 538.232,622.924 548.318,624.72L549.44,624.92L550.47,624.432C558.34,620.702 568.617,619.269 578.416,616.036C589.056,612.525 599.129,607.033 605.725,595.455C630.775,567.987 622.81,531.705 600.749,504.665C594.19,491.776 579.442,481.161 568.027,469.64C557.925,459.442 550.499,448.461 556.898,433.477C567.546,419.605 580.19,424.001 593.485,429.798C601.129,433.131 608.989,437.017 616.872,439.202C625.314,441.542 633.786,441.963 642.109,438.257C658.582,433.97 670.527,420.225 675.931,404.02C681.337,387.812 680.151,369.243 670.779,355.583L670.653,355.4L670.506,355.233C658.939,342.2 643.104,339.025 626.471,340.189C610.756,341.289 594.342,346.284 580.64,349.667L580.556,349.687C510.591,370.587 446.882,409.456 394.443,460.155L394.314,460.28L394.198,460.418C382.046,474.801 373.587,492.245 364.67,509.531C356.054,526.232 347.007,542.79 333.368,555.998L333.21,556.151L333.072,556.322C282.286,619.338 194.058,659.898 114.666,631.922Z" style="fill:#970000;fill-rule:nonzero;"/>
    </g>
</svg>
