<?xml version="1.0" encoding="UTF-8" standalone="no"?>
<!-- Created with Inkscape (http://www.inkscape.org/) -->

<svg
   width="720"
   height="720"
   viewBox="0 0 720 720"
   version="1.1"
   id="svg1"
   xml:space="preserve"
   inkscape:version="1.3.2 (091e20e, 2023-11-25, custom)"
   sodipodi:docname="eo3-logo.svg"
   xmlns:inkscape="http://www.inkscape.org/namespaces/inkscape"
   xmlns:sodipodi="http://sodipodi.sourceforge.net/DTD/sodipodi-0.dtd"
   xmlns="http://www.w3.org/2000/svg"
   xmlns:svg="http://www.w3.org/2000/svg"><sodipodi:namedview
     id="namedview1"
     pagecolor="#505050"
     bordercolor="#ffffff"
     borderopacity="1"
     inkscape:showpageshadow="0"
     inkscape:pageopacity="0"
     inkscape:pagecheckerboard="1"
     inkscape:deskcolor="#d1d1d1"
     inkscape:document-units="px"
     inkscape:zoom="1.0708333"
     inkscape:cx="525.75875"
     inkscape:cy="394.55253"
     inkscape:window-width="2560"
     inkscape:window-height="1009"
     inkscape:window-x="760"
     inkscape:window-y="113"
     inkscape:window-maximized="1"
     inkscape:current-layer="layer1" /><defs
     id="defs1" /><g
     inkscape:label="Layer 1"
     inkscape:groupmode="layer"
     id="layer1"><path
       style="fill:#970000;fill-opacity:1;stroke-width:1.00889"
       d="m 523.07149,691.72594 c -59.20433,-4.43875 -107.21386,-57.38219 -109.43224,-116.47171 -1.97074,-32.30604 4.05812,-65.76682 17.35361,-95.06086 21.26155,-5.95091 38.74296,-46.55481 46.24074,-49.63368 -6.31163,24.99146 -15.88458,50.41495 0.35875,70.20272 -6.04788,31.2045 1.41095,57.33028 10.76427,86.92432 9.91158,24.64415 40.86486,30.01127 60.58609,33.52229 15.97864,-7.57141 41.67953,-5.96866 53.87483,-27.85914 24.19317,-26.20699 16.12029,-60.94253 -5.07624,-86.72931 -12.62867,-25.50926 -58.71626,-41.42781 -43.94325,-74.95889 23.92335,-31.9028 56.66769,17.14406 87.12393,3.21832 30.92654,-7.80016 44.43779,-51.74056 26.91674,-77.27971 -21.57059,-24.30483 -59.29862,-11.14901 -86.34399,-4.4716 -69.33749,20.71239 -132.54371,59.28683 -184.57291,109.59037 -23.96361,28.3639 -33.2333,68.88173 -61.07313,95.84081 -52.00223,64.52487 -142.64998,105.6932 -223.8329,76.20169 -29.301805,-12.10193 31.36002,-2.80583 41.59425,-5.82468 77.71575,-3.04713 146.42857,-57.64924 179.92432,-126.16649 C 258.43842,536.37721 169.50531,562.50996 89.911561,527.65251 23.419451,500.90206 -18.230897,419.36444 9.603776,350.80066 23.465217,305.18462 69.216353,273.48391 116.60046,278.57185 c 17.22139,-2.05589 -7.49282,-42.51394 -0.48005,-61.41849 1.02086,-61.18302 59.4017,-118.440006 121.60432,-105.25224 65.8878,11.37727 108.67106,82.41057 99.9093,146.97038 -2.4117,35.90565 -3.74117,72.09441 -8.6207,107.6981 -13.85289,-45.24083 -22.30582,-92.08183 -37.53316,-136.76656 -12.59815,-29.39667 -45.34734,-60.67336 -79.29714,-48.34026 -34.04281,20.63757 -25.59173,65.74791 -11.80671,96.29545 8.78564,33.55564 42.86941,55.22493 45.96489,89.74378 -7.17875,42.79565 -61.25887,29.96982 -74.90847,-1.7593 -25.81106,-26.45616 -75.534167,-45.18534 -105.172139,-15.10854 -36.721337,42.91526 -12.200419,113.16401 36.326089,135.46341 66.75305,33.46038 144.33617,9.55226 207.76917,-20.23875 35.55562,-11.11776 60.64719,-38.59462 59.18878,-77.30826 9.41137,-60.40027 0.65134,-121.386 -1.99993,-181.85754 -0.35062,-67.81842 30.02862,-146.071751 98.61978,-169.631368 63.95655,-22.445658 145.03441,12.136208 163.442,80.194098 19.97698,59.38121 -13.79504,130.74615 -74.17029,149.25363 -42.39365,18.41431 -99.87296,-2.50081 -111.40229,-49.86261 -5.07735,-18.45417 5.17397,-48.29011 8.37754,-60.73747 6.6213,28.01626 17.04783,61.7952 48.56487,70.04285 25.22955,7.76695 54.43751,-8.62659 70.22261,-29.71994 20.03612,-32.4275 12.09254,-79.89494 -22.71249,-98.688586 -38.67494,-25.972941 -95.36431,-9.043383 -113.98285,33.899666 -33.48665,65.87674 -9.76492,141.15867 -18.02416,211.40097 2.64779,17.55543 -20.22525,72.50263 11.13098,38.93157 61.30634,-41.25007 131.71445,-73.1767 205.89267,-79.08309 47.65823,-4.04292 88.70706,40.38568 85.47562,87.66087 0.66872,41.2443 -28.10156,79.96928 -67.51914,91.06873 26.39593,37.40243 40.85266,88.03843 19.59941,131.31783 -24.50931,55.67234 -89.68028,84.67464 -147.98748,78.98576 z"
       id="path1" /></g></svg>
